<svg width="27" height="27" viewBox="0 0 27 27" fill="none" xmlns="http://www.w3.org/2000/svg">
<path d="M8.2565 11.3456L13.4999 6.10241L18.746 11.3484L21.7969 8.29741L13.4999 0L5.20555 8.29463L8.2565 11.3456Z" fill="#F3BA2F"/>
<path d="M6.10194 13.4995L3.05104 10.4486L0 13.4997L3.05089 16.5506L6.10194 13.4995Z" fill="#F3BA2F"/>
<path d="M8.2565 15.6544L13.4999 20.8976L18.7458 15.6518L21.7984 18.7011L21.7969 18.7028L13.4999 27L5.20107 18.7013L8.2565 15.6544Z" fill="#F3BA2F"/>
<path d="M23.949 16.552L27 13.501L23.9491 10.45L20.8981 13.5011L23.949 16.552Z" fill="#F3BA2F"/>
<path d="M16.5945 13.4984L13.4999 10.4024L10.4024 13.4999L10.4067 13.5044L13.4999 16.5976L16.5958 13.5016L16.5973 13.4999L16.5945 13.4984Z" fill="#F3BA2F"/>
</svg>
