<svg width="348" height="132" viewBox="0 0 348 132" fill="none" xmlns="http://www.w3.org/2000/svg">
<mask id="mask0_27_105" style="mask-type:alpha" maskUnits="userSpaceOnUse" x="0" y="0" width="348" height="132">
<path d="M69.5113 18.6868C34.5439 8.87621 19.0255 20.0493 15.6372 26.8622L0.898013 41.4613C0.220351 53.1405 -0.728375 77.6669 0.898013 82.3386C1.95821 85.3839 3.98596 86.5235 7.48585 88.4904C10.6972 90.2951 15.1479 92.7964 21.2279 98.1055C31.7313 107.277 41.8874 108.867 56.2896 111.122C59.3101 111.595 62.5173 112.097 65.9536 112.705C79.637 115.123 92.5938 114.481 109.171 113.659C116.608 113.29 124.773 112.885 134.059 112.705C160.132 112.197 165.84 113.897 180.25 118.188C182.413 118.832 184.772 119.534 187.424 120.296C202.4 124.598 219.031 126.364 240.364 128.631C247.99 129.441 256.218 130.315 265.186 131.391C289.327 134.289 303.761 126.328 318.268 118.327C324.224 115.042 330.192 111.75 336.849 109.201C354.376 102.488 347.129 95.0894 342.557 90.4215C341.163 88.9983 340.017 87.8289 339.898 87.0102C339.492 84.2072 329.903 30.5606 325.159 4.08773C322.787 5.83961 315.706 10.5113 306.354 15.183C294.664 21.0226 282.975 18.6868 265.186 12.2632C260.492 10.568 256.717 8.91341 253.256 7.39612C243.603 3.16409 236.385 0 218.428 0C194.032 0 175.735 4.08773 152.355 18.6868C128.976 33.2858 113.22 30.9499 69.5113 18.6868Z" fill="#393E46"/>
<path d="M69.5113 18.6868C34.5439 8.87621 19.0255 20.0493 15.6372 26.8622L0.898013 41.4613C0.220351 53.1405 -0.728375 77.6669 0.898013 82.3386C1.95821 85.3839 3.98596 86.5235 7.48585 88.4904C10.6972 90.2951 15.1479 92.7964 21.2279 98.1055C31.7313 107.277 41.8874 108.867 56.2896 111.122C59.3101 111.595 62.5173 112.097 65.9536 112.705C79.637 115.123 92.5938 114.481 109.171 113.659C116.608 113.29 124.773 112.885 134.059 112.705C160.132 112.197 165.84 113.897 180.25 118.188C182.413 118.832 184.772 119.534 187.424 120.296C202.4 124.598 219.031 126.364 240.364 128.631C247.99 129.441 256.218 130.315 265.186 131.391C289.327 134.289 303.761 126.328 318.268 118.327C324.224 115.042 330.192 111.75 336.849 109.201C354.376 102.488 347.129 95.0894 342.557 90.4215C341.163 88.9983 340.017 87.8289 339.898 87.0102C339.492 84.2072 329.903 30.5606 325.159 4.08773C322.787 5.83961 315.706 10.5113 306.354 15.183C294.664 21.0226 282.975 18.6868 265.186 12.2632C260.492 10.568 256.717 8.91341 253.256 7.39612C243.603 3.16409 236.385 0 218.428 0C194.032 0 175.735 4.08773 152.355 18.6868C128.976 33.2858 113.22 30.9499 69.5113 18.6868Z" stroke="white"/>
</mask>
<g mask="url(#mask0_27_105)">
<g filter="url(#filter0_b_27_105)">
<rect x="17" y="-97" width="305" height="194" rx="15" fill="white" fill-opacity="0.15"/>
</g>
</g>
<defs>
<filter id="filter0_b_27_105" x="-180" y="-294" width="699" height="588" filterUnits="userSpaceOnUse" color-interpolation-filters="sRGB">
<feFlood flood-opacity="0" result="BackgroundImageFix"/>
<feGaussianBlur in="BackgroundImage" stdDeviation="98.5"/>
<feComposite in2="SourceAlpha" operator="in" result="effect1_backgroundBlur_27_105"/>
<feBlend mode="normal" in="SourceGraphic" in2="effect1_backgroundBlur_27_105" result="shape"/>
</filter>
</defs>
</svg>
